<svg xmlns="http://www.w3.org/2000/svg" width="345" height="72" viewBox="0 0 345 72"><title>NIH_NICHD_Master_Logo_2Color_tag</title><path d="M58.2,16.4V39h-4V28.8H43.9V39H40V16.4h3.9v9H54.2v-9h4ZM36.1,39h-4V16.4h4Zm-7.9,0H24L13.8,22.4h-.1V39H9.9V16.4h4.2L24.4,33.1h.1V16.4h3.7ZM72.1,27.6,58.1,2.4H6.8A4.7,4.7,0,0,0,2.1,7.1V48.2a4.7,4.7,0,0,0,4.7,4.7H58.1Z" fill="#636569"/><path d="M61.6,52.9,75.5,27.6,61.6,2.4h3.5a6.4,6.4,0,0,1,5.1,3.1L82.5,27.6,70.2,49.8a6.4,6.4,0,0,1-5.1,3.1Z" fill="#636569"/><path d="M61.6,52.9,75.5,27.6,61.6,2.4h3.5a6.4,6.4,0,0,1,5.1,3.1L82.5,27.6,70.2,49.8a6.4,6.4,0,0,1-5.1,3.1Z" fill="#68a2b9"/><path d="M90.1,14.3h7.3l-.3,1.5H91.5L91,18.4h5.2l-.3,1.4H90.7l-.6,3h5.6l-.3,1.5H88.1Z" fill="#636569"/><path d="M102.8,24.3h-1.5l.2-1.1h0A3.1,3.1,0,0,1,99,24.5a1.8,1.8,0,0,1-2.1-2v-.9l1-4.6h1.6l-.9,4.5a1.7,1.7,0,0,0-.1.7c0,.2-.1,1,1.1,1s2-1.2,2.3-2.3l.8-3.9h1.6Z" fill="#636569"/><path d="M105.8,17h1.5l-.3,1.1h.1a3,3,0,0,1,2.5-1.3,1.8,1.8,0,0,1,2.1,1.9,2.5,2.5,0,0,1-.1.9l-1,4.7H109l1-4.5c0-.2.1-.5.1-.7s0-1-1.1-1a2,2,0,0,0-1.5.7,3.1,3.1,0,0,0-.8,1.5l-.8,4h-1.6Z" fill="#636569"/><path d="M113.6,17h1.6l-1.5,7.3h-1.6Zm.5-2.7h1.6l-.3,1.5h-1.6Z" fill="#636569"/><path d="M120.9,19.4c.1-.9-.5-1.3-1.4-1.3s-2.4,1.8-2.4,3.2.4,1.9,1.6,1.9a2,2,0,0,0,1.9-1.4h1.6a3.6,3.6,0,0,1-3.7,2.7,2.9,2.9,0,0,1-3-3.1c0-2.5,1.6-4.6,4.1-4.6s3,.9,2.9,2.6Z" fill="#636569"/><path d="M129.7,22a3.4,3.4,0,0,1-3.5,2.5,3,3,0,0,1-3.2-3.2,4.3,4.3,0,0,1,4.1-4.5c2.5,0,3,1.9,3,3.4v.9h-5.4a.6.6,0,0,0-.1.4,1.6,1.6,0,0,0,1.8,1.7,1.6,1.6,0,0,0,1.7-1.2Zm-1.2-2v-.4a1.4,1.4,0,0,0-1.5-1.5,2.2,2.2,0,0,0-2.2,1.9Z" fill="#636569"/><path d="M136.2,14.3h1.7l-.9,4.5h0l5.1-4.5h2.3l-4.8,4.1,3.2,5.9h-2l-2.5-4.8L136.5,21l-.7,3.3h-1.7Z" fill="#636569"/><path d="M150.2,22a3.3,3.3,0,0,1-3.5,2.5,3,3,0,0,1-3.1-3.2c0-2.2,1.4-4.5,4-4.5s3.1,1.9,3.1,3.4-.1.6-.1.9h-5.4v.4a1.5,1.5,0,0,0,1.7,1.7,1.6,1.6,0,0,0,1.7-1.2Zm-1.1-2v-.4a1.4,1.4,0,0,0-1.5-1.5,2.2,2.2,0,0,0-2.2,1.9Z" fill="#636569"/><path d="M152.3,17h1.5l-.2,1.1h0a3.1,3.1,0,0,1,2.5-1.3c1.5,0,2.1.8,2.1,1.9a2.5,2.5,0,0,1-.1.9l-.9,4.7h-1.6l.9-4.5a1.7,1.7,0,0,0,.1-.7c0-.2.1-1-1.1-1a2.1,2.1,0,0,0-1.5.7,3.1,3.1,0,0,0-.8,1.5l-.8,4h-1.6Z" fill="#636569"/><path d="M160.1,17h1.5l-.2,1.1h0a3.1,3.1,0,0,1,2.5-1.3c1.5,0,2.1.8,2.1,1.9a2.5,2.5,0,0,1-.1.9l-.9,4.7h-1.6l.9-4.5a1.7,1.7,0,0,0,.1-.7c0-.2.1-1-1.1-1a2.1,2.1,0,0,0-1.5.7,3.1,3.1,0,0,0-.8,1.5l-.8,4h-1.6Z" fill="#636569"/><path d="M173.4,22a3.4,3.4,0,0,1-3.5,2.5,3,3,0,0,1-3.2-3.2c0-2.2,1.4-4.5,4-4.5s3.1,1.9,3.1,3.4a2.8,2.8,0,0,1-.1.9h-5.4v.4a1.5,1.5,0,0,0,1.7,1.7,1.7,1.7,0,0,0,1.8-1.2Zm-1.2-2v-.4a1.4,1.4,0,0,0-1.5-1.5,2.2,2.2,0,0,0-2.2,1.9Z" fill="#636569"/><path d="M180.7,24.3h-1.6l.3-1h-.1a2.5,2.5,0,0,1-2.2,1.2c-.9,0-2.8-.3-2.8-3s1.4-4.7,3.9-4.7a2.1,2.1,0,0,1,2.2,1.2h0l.8-3.7h1.6Zm-2.3-6.2c-1.8,0-2.5,1.8-2.5,3.4s.5,1.7,1.6,1.7,2.5-1.9,2.5-3.4A1.5,1.5,0,0,0,178.4,18.1Z" fill="#636569"/><path d="M182.8,17h1.7l.8,5.3h0L188,17h1.8l-4.2,7.5c-.8,1.4-1.3,2.6-3.1,2.6h-1l.3-1.3h.7a1,1,0,0,0,1-.6l.6-1.2Z" fill="#636569"/><path d="M194.7,21c-.1,1.5.9,2.1,2.3,2.1s2.2-.5,2.2-1.6-1.1-1.4-2.4-1.8-2.7-.7-2.7-2.6,1.4-3.1,3.7-3.1,3.8.9,3.7,3.2h-1.6c-.1-1.2-.7-1.7-2.1-1.7s-1.9.1-1.9,1.4.9,1.2,2,1.5,3.1.8,3.1,2.9-1.1,3.2-4.2,3.2-3.8-1-3.8-3.5Z" fill="#636569"/><path d="M203.6,14.3h1.6l-.8,3.7h0a3.3,3.3,0,0,1,2.4-1.2c1.5,0,2.1.8,2.1,1.9v.9l-1,4.7h-1.6l.9-4.5a1.7,1.7,0,0,0,.1-.7c0-.2.1-1-1.1-1a2.1,2.1,0,0,0-1.5.7,7.1,7.1,0,0,0-.8,1.5l-.8,4h-1.6Z" fill="#636569"/><path d="M210.8,17h1.5l-.3,1.4h.1a2.9,2.9,0,0,1,2.3-1.7h.8l-.4,1.5h-.5c-1.7,0-2.4,1.3-2.7,2.8l-.7,3.2h-1.6Z" fill="#636569"/><path d="M215.8,17h1.6l-1.5,7.3h-1.6Zm.5-2.7h1.6l-.3,1.5H216Z" fill="#636569"/><path d="M218,17h1.7l.6,5.3h0l2.8-5.3h1.7l-4,7.3H219Z" fill="#636569"/><path d="M231.1,22a3.3,3.3,0,0,1-3.5,2.5,3,3,0,0,1-3.1-3.2c0-2.2,1.4-4.5,4-4.5s3.1,1.9,3.1,3.4-.1.6-.1.9h-5.4v.4a1.5,1.5,0,0,0,1.7,1.7,1.6,1.6,0,0,0,1.7-1.2ZM230,20v-.4a1.4,1.4,0,0,0-1.6-1.5,2.4,2.4,0,0,0-2.2,1.9Z" fill="#636569"/><path d="M233.2,17h1.5l-.3,1.4h.1a2.9,2.9,0,0,1,2.3-1.7h.7l-.3,1.5h-.6c-1.6,0-2.3,1.3-2.6,2.8l-.7,3.2h-1.6Z" fill="#636569"/><path d="M240.9,14.9h1.7l4.3,6.9h0V14.9h1.6v9.4h-1.7l-4.3-6.9h0v6.9h-1.6Z" fill="#636569"/><path d="M255.7,22.8c0,.3.1.5.3.5h.4v1.1l-.9.2a1.1,1.1,0,0,1-1.2-.9,3.3,3.3,0,0,1-2.3.9c-1.3,0-2.4-.7-2.4-2s1.4-2,2.6-2.1,2.1-.1,2.1-1-.8-.9-1.4-.9-1.5.3-1.5,1.1h-1.5c.1-1.8,1.6-2.3,3.1-2.3s2.7.5,2.7,2Zm-1.5-1.9a5.3,5.3,0,0,1-1.8.4c-.7.1-1.3.3-1.3,1.1s.9.9,1.4.9,1.7-.4,1.7-1.3Z" fill="#636569"/><path d="M256.4,17.5h1.1V15.4H259v2.1h1.4v1.1H259v3.6c0,.6.1,1,.7,1h.7v1.2h-1c-1.6,0-1.9-.6-1.9-1.7v-4h-1.1Z" fill="#636569"/><path d="M261.2,14.9h1.5v1.4h-1.5Zm0,2.6h1.5v6.8h-1.5Z" fill="#636569"/><path d="M263.8,20.9a3.5,3.5,0,1,1,6.9,0,3.5,3.5,0,1,1-6.9,0Zm5.4,0c0-1.2-.6-2.4-2-2.4s-1.9,1.2-1.9,2.4.6,2.4,1.9,2.4S269.2,22.1,269.2,20.9Z" fill="#636569"/><path d="M271.7,17.5h1.4v1h0a2.7,2.7,0,0,1,2.1-1.2,2.2,2.2,0,0,1,2.5,2.3v4.7h-1.5V20c-.1-1.1-.5-1.5-1.4-1.5a1.6,1.6,0,0,0-1.6,1.8v4h-1.5Z" fill="#636569"/><path d="M284.7,22.8c0,.3.1.5.3.5h.4v1.1l-.9.2a1.1,1.1,0,0,1-1.2-.9,3.3,3.3,0,0,1-2.3.9c-1.3,0-2.4-.7-2.4-2s1.4-2,2.6-2.1,2.1-.1,2.1-1-.8-.9-1.4-.9-1.5.3-1.5,1.1h-1.5c.1-1.8,1.6-2.3,3.1-2.3s2.7.5,2.7,2Zm-1.5-1.9a5.3,5.3,0,0,1-1.9.4c-.6.1-1.2.3-1.2,1.1s.9.9,1.4.9,1.7-.4,1.7-1.3Z" fill="#636569"/><path d="M286.1,14.9h1.5v9.4h-1.5Z" fill="#636569"/><path d="M292.6,14.9h1.7v9.4h-1.7Z" fill="#636569"/><path d="M295.8,17.5h1.4v1h.1a2.4,2.4,0,0,1,2.1-1.2,2.2,2.2,0,0,1,2.4,2.3v4.7h-1.5V20c-.1-1.1-.5-1.5-1.4-1.5a1.7,1.7,0,0,0-1.6,1.8v4h-1.5Z" fill="#636569"/><path d="M304.2,22.1c.1.9.8,1.2,1.6,1.2s1.5-.1,1.5-.9-1.1-.9-2.2-1.2-2.2-.6-2.2-2,1.6-1.9,2.8-1.9,2.7.6,2.9,2.1H307c-.1-.7-.7-.9-1.4-.9s-1.2.1-1.2.7,1.1.8,2.2,1.1,2.2.6,2.2,1.9-1.6,2.3-3,2.3-3-.8-3-2.4Z" fill="#636569"/><path d="M309,17.5h1.1V15.4h1.5v2.1H313v1.1h-1.4v3.6c0,.6.1,1,.8,1h.6v1.2h-1c-1.5,0-1.8-.6-1.9-1.7v-4H309Z" fill="#636569"/><path d="M313.9,14.9h1.5v1.4h-1.5Zm0,2.6h1.5v6.8h-1.5Z" fill="#636569"/><path d="M316.1,17.5h1.1V15.4h1.5v2.1h1.4v1.1h-1.4v3.6c0,.6.1,1,.7,1h.7v1.2h-1c-1.6,0-1.9-.6-1.9-1.7v-4h-1.1Z" fill="#636569"/><path d="M326.9,24.3h-1.5v-1h0a2.4,2.4,0,0,1-2,1.2c-1.7,0-2.5-.9-2.5-2.7V17.5h1.5v4.1c0,1.2.5,1.7,1.3,1.7s1.7-.8,1.7-1.9V17.5h1.5Z" fill="#636569"/><path d="M327.5,17.5h1.2V15.4h1.5v2.1h1.3v1.1h-1.3v3.6c0,.6,0,1,.7,1h.6v1.2h-1c-1.5,0-1.8-.6-1.8-1.7v-4h-1.2Z" fill="#636569"/><path d="M333.5,21.3a1.8,1.8,0,0,0,1.8,2,1.6,1.6,0,0,0,1.7-1.2h1.4a3,3,0,0,1-3.1,2.4c-2.1,0-3.3-1.5-3.3-3.6a3.4,3.4,0,0,1,3.3-3.6,3.3,3.3,0,0,1,3.2,4Zm3.5-1a1.7,1.7,0,0,0-1.7-1.8,1.9,1.9,0,0,0-1.8,1.8Z" fill="#636569"/><path d="M88.5,38.4a3.7,3.7,0,1,1,7.4,0,3.7,3.7,0,1,1-7.4,0Zm5.8,0c0-1.3-.7-2.6-2.1-2.6s-2.1,1.3-2.1,2.6.7,2.6,2.1,2.6S94.3,39.7,94.3,38.4Z" fill="#636569"/><path d="M96.2,34.8h1.2v-.6c0-1.9,1-2.2,2-2.2h1.2v1.3h-.8c-.4,0-.8.1-.8.7v.8h1.4V36H99v6H97.4V36H96.2Z" fill="#636569"/><path d="M111.8,35.2a2.4,2.4,0,0,0-2.5-2c-2.2,0-3.1,1.9-3.1,3.8s.9,3.8,3.1,3.8a2.5,2.5,0,0,0,2.5-2.6h1.7a4.1,4.1,0,0,1-4.2,4.1c-3,0-4.8-2.4-4.8-5.3s1.8-5.2,4.8-5.2,4,1.2,4.2,3.4Z" fill="#636569"/><path d="M114.7,32h1.6v3.7h0a2.6,2.6,0,0,1,2.2-1.1A2.2,2.2,0,0,1,121,37v5h-1.6V37.5c0-1.2-.5-1.7-1.4-1.7a1.7,1.7,0,0,0-1.7,1.9V42h-1.6Z" fill="#636569"/><path d="M122.5,32h1.6v1.5h-1.6Zm0,2.8h1.6V42h-1.6Z" fill="#636569"/><path d="M125.6,32h1.6V42h-1.6Z" fill="#636569"/><path d="M135.5,42H134V41h0a2.2,2.2,0,0,1-2.2,1.2c-2.3,0-3.4-1.7-3.4-3.9s1.5-3.7,3.1-3.7a2.8,2.8,0,0,1,2.4,1.1h.1V32h1.5ZM132,41c1.4,0,2-1.3,2-2.6s-.8-2.6-2-2.6-2,1.4-2,2.7S130.6,41,132,41Z" fill="#636569"/><path d="M140.9,32h1.7v4h4.6V32h1.7V42h-1.7V37.5h-4.6V42h-1.7Z" fill="#636569"/><path d="M151.8,38.8a2,2,0,0,0,1.9,2.2,1.7,1.7,0,0,0,1.8-1.3H157a3.2,3.2,0,0,1-3.3,2.5c-2.2,0-3.5-1.6-3.5-3.8a3.5,3.5,0,1,1,6.9.4Zm3.7-1a1.9,1.9,0,0,0-1.8-2,1.9,1.9,0,0,0-1.9,2Z" fill="#636569"/><path d="M164.2,40.4c0,.4,0,.6.3.6h.4V42l-1,.2c-.6,0-1.1-.2-1.2-.9a3.8,3.8,0,0,1-2.5.9,2.2,2.2,0,0,1-2.5-2.1c0-1.8,1.4-2.1,2.8-2.3s2.2,0,2.2-1-.9-1-1.5-1-1.6.4-1.6,1.2H158c.1-1.9,1.7-2.4,3.3-2.4s2.9.6,2.9,2.1Zm-1.6-2a5.9,5.9,0,0,1-2,.4c-.7.1-1.3.4-1.3,1.2s.9,1,1.5,1,1.8-.4,1.8-1.4Z" fill="#636569"/><path d="M165.7,32h1.6V42h-1.6Z" fill="#636569"/><path d="M168,34.8h1.2V32.6h1.6v2.2h1.5V36h-1.5v3.8c0,.7.1,1,.8,1h.7V42h-1.1c-1.6,0-1.9-.7-2-1.9V36H168Z" fill="#636569"/><path d="M173.2,32h1.6v3.7h0a2.6,2.6,0,0,1,2.2-1.1,2.2,2.2,0,0,1,2.5,2.4v5h-1.6V37.5c0-1.2-.4-1.7-1.4-1.7a1.8,1.8,0,0,0-1.7,1.9V42h-1.6Z" fill="#636569"/><path d="M190.7,40.4c0,.4.1.6.4.6h.4V42l-1,.2c-.7,0-1.2-.2-1.3-.9a3.7,3.7,0,0,1-2.5.9,2.2,2.2,0,0,1-2.5-2.1c0-1.8,1.5-2.1,2.8-2.3s2.2,0,2.2-1-.9-1-1.5-1-1.5.4-1.6,1.2h-1.6c.1-1.9,1.7-2.4,3.3-2.4s2.9.6,2.9,2.1Zm-1.6-2a5.9,5.9,0,0,1-2,.4c-.7.1-1.3.4-1.3,1.2s.9,1,1.5,1,1.8-.4,1.8-1.4Z" fill="#636569"/><path d="M192.2,34.8h1.5v1h0a2.6,2.6,0,0,1,2.3-1.3,2.2,2.2,0,0,1,2.5,2.4v5h-1.6V37.5c0-1.2-.5-1.7-1.4-1.7a1.7,1.7,0,0,0-1.7,1.9V42h-1.6Z" fill="#636569"/><path d="M206.8,42h-1.5V41h-.1a2.2,2.2,0,0,1-2.2,1.2c-2.3,0-3.4-1.7-3.4-3.9s1.6-3.7,3.2-3.7a2.8,2.8,0,0,1,2.4,1.1h0V32h1.6Zm-3.6-1c1.4,0,2-1.3,2-2.6s-.7-2.6-2-2.6-2,1.4-2,2.7S201.8,41,203.2,41Z" fill="#636569"/><path d="M212.1,32h1.8v4h4.5V32h1.8V42h-1.8V37.5h-4.5V42h-1.8Z" fill="#636569"/><path d="M228.2,42h-1.6V41h0a2.6,2.6,0,0,1-2.1,1.2c-1.9,0-2.7-.9-2.7-2.8V34.8h1.6v4.4c0,1.3.5,1.8,1.4,1.8s1.8-.9,1.8-2V34.8h1.6Z" fill="#636569"/><path d="M229.6,34.8h1.5v1h.1a2.3,2.3,0,0,1,2.2-1.2,2,2,0,0,1,2,1.2,2.6,2.6,0,0,1,2.3-1.2,2.1,2.1,0,0,1,2.4,2.4v5h-1.6V37.8c0-1.2-.1-2-1.3-2s-1.5.8-1.5,2V42h-1.6V37.4c0-1-.3-1.6-1.3-1.6a1.7,1.7,0,0,0-1.6,1.9V42h-1.6Z" fill="#636569"/><path d="M247.6,40.4c0,.4.1.6.4.6h.4V42l-1,.2c-.7,0-1.1-.2-1.2-.9a4.1,4.1,0,0,1-2.6.9,2.1,2.1,0,0,1-2.4-2.1c0-1.8,1.4-2.1,2.8-2.3s2.1,0,2.1-1-.8-1-1.5-1-1.5.4-1.6,1.2h-1.6c.1-1.9,1.7-2.4,3.3-2.4s2.9.6,2.9,2.1Zm-1.6-2a5.3,5.3,0,0,1-1.9.4c-.7.1-1.3.4-1.3,1.2s.9,1,1.4,1,1.8-.4,1.8-1.4Z" fill="#636569"/><path d="M249.1,34.8h1.5v1h.1a2.5,2.5,0,0,1,2.2-1.3c1.6,0,2.6.8,2.6,2.4v5h-1.6V37.5c-.1-1.2-.5-1.7-1.4-1.7a1.8,1.8,0,0,0-1.8,1.9V42h-1.6Z" fill="#636569"/><path d="M260.8,32h4.1c3.1,0,4.4,2.3,4.4,5s-1.3,5-4.4,5h-4.1Zm1.7,8.6h1.8c2.7,0,3.3-1.6,3.3-3.6s-.6-3.6-3.3-3.6h-1.8Z" fill="#636569"/><path d="M271.7,38.8a2,2,0,0,0,1.9,2.2,1.7,1.7,0,0,0,1.8-1.3h1.5a3.2,3.2,0,0,1-3.3,2.5c-2.2,0-3.5-1.6-3.5-3.8a3.5,3.5,0,1,1,6.9.4Zm3.7-1a1.9,1.9,0,0,0-1.8-2,1.9,1.9,0,0,0-1.9,2Z" fill="#636569"/><path d="M277.3,34.8H279l1.8,5.5h.1l1.7-5.5h1.7L281.7,42h-1.8Z" fill="#636569"/><path d="M286.3,38.8a2,2,0,0,0,1.9,2.2,1.8,1.8,0,0,0,1.8-1.3h1.5a3.2,3.2,0,0,1-3.3,2.5c-2.3,0-3.5-1.6-3.5-3.8a3.5,3.5,0,1,1,6.9.4Zm3.7-1a2.1,2.1,0,0,0-1.8-2,1.9,1.9,0,0,0-1.9,2Z" fill="#636569"/><path d="M292.6,32h1.6V42h-1.6Z" fill="#636569"/><path d="M295.4,38.4a3.5,3.5,0,0,1,3.6-3.8,3.5,3.5,0,0,1,3.7,3.8,3.5,3.5,0,0,1-3.7,3.8A3.5,3.5,0,0,1,295.4,38.4Zm5.7,0c0-1.3-.7-2.6-2.1-2.6s-2,1.3-2,2.6.6,2.6,2,2.6S301.1,39.7,301.1,38.4Z" fill="#636569"/><path d="M303.8,34.8h1.5v1h0a2.5,2.5,0,0,1,2.3-1.2c2.3,0,3.4,1.7,3.4,3.8s-1,3.8-3.1,3.8a2.8,2.8,0,0,1-2.5-1.1h0v3.6h-1.6Zm3.6,1c-1.4,0-2.1,1.1-2.1,2.6s.8,2.6,2.1,2.6,2-1.3,2-2.6S308.7,35.8,307.4,35.8Z" fill="#636569"/><path d="M312.1,34.8h1.5v1h0a2.5,2.5,0,0,1,2.3-1.2,2.1,2.1,0,0,1,2,1.2,2.5,2.5,0,0,1,2.3-1.2,2.1,2.1,0,0,1,2.4,2.4v5H321V37.8c0-1.2-.1-2-1.3-2s-1.6.8-1.6,2V42h-1.6V37.4c0-1-.3-1.6-1.2-1.6s-1.6.7-1.6,1.9V42h-1.6Z" fill="#636569"/><path d="M325.3,38.8a2,2,0,0,0,1.9,2.2,1.8,1.8,0,0,0,1.8-1.3h1.5a3.2,3.2,0,0,1-3.3,2.5c-2.3,0-3.5-1.6-3.5-3.8a3.5,3.5,0,0,1,3.5-3.8c2.2,0,3.6,2,3.4,4.2Zm3.7-1a2.1,2.1,0,0,0-1.8-2,1.9,1.9,0,0,0-1.9,2Z" fill="#636569"/><path d="M331.6,34.8h1.5v1h0a2.6,2.6,0,0,1,2.3-1.3,2.2,2.2,0,0,1,2.5,2.4v5h-1.6V37.5c0-1.2-.5-1.7-1.4-1.7a1.7,1.7,0,0,0-1.7,1.9V42h-1.6Z" fill="#636569"/><path d="M338.6,34.8h1.2V32.6h1.6v2.2h1.5V36h-1.5v3.8c0,.7.1,1,.8,1h.7V42h-1.1c-1.6,0-1.9-.7-2-1.9V36h-1.2Z" fill="#636569"/><path d="M3.8,59.5H5.5l-.6,3.1H8.1l.6-3.1h1.7L8.8,67.4H7L7.8,64H4.6l-.7,3.4H2.1Z" fill="#636569"/><path d="M11.9,64.9v.4c0,.6.4,1.1,1.3,1.1a1.2,1.2,0,0,0,1.1-.8h1.6A2.7,2.7,0,0,1,13,67.5c-1.6,0-2.6-.8-2.6-2.4a3.2,3.2,0,0,1,3.2-3.5A2.3,2.3,0,0,1,16.2,64a2.5,2.5,0,0,1-.1.9Zm2.8-1c0-.5-.1-1.2-1-1.2a1.6,1.6,0,0,0-1.6,1.2Z" fill="#636569"/><path d="M17.3,63.4c.2-1.4,1.4-1.8,2.7-1.8s2.4.2,2.4,1.4a3.6,3.6,0,0,1-.2,1l-.5,2.3c0,.2-.1.5-.1.8s.1.2.1.3H20.1v-.6a2.2,2.2,0,0,1-1.7.7c-1.2,0-1.8-.7-1.8-1.4s.8-1.8,2.1-2,2.2-.1,2.2-.8-.6-.7-1-.7a1,1,0,0,0-1.1.8Zm3.3,1.3a3,3,0,0,1-1.3.2c-.6.1-1.2.3-1.2,1s.4.6.9.6a1.4,1.4,0,0,0,1.4-1.3Z" fill="#636569"/><path d="M24.5,59.5H26l-1.6,7.9H22.8Z" fill="#636569"/><path d="M28.9,61.7H30l-.3,1.1H28.6L28,65.6v.2c0,.5.3.5.5.5h.6l-.3,1.2h-1c-.7,0-1.5-.2-1.4-1.2v-.5l.7-3H26l.3-1.1h1l.3-1.7h1.6Z" fill="#636569"/><path d="M31.4,59.5h1.5l-.6,2.9h.1c.2-.4.8-.8,1.9-.8a1.4,1.4,0,0,1,1.6,1.5,3.6,3.6,0,0,1-.2,1L35,67.4H33.5l.7-3.3c0-.2.1-.6.1-.7s-.4-.6-.8-.6-1.4.8-1.6,1.6l-.6,3H29.7Z" fill="#636569"/><path d="M38.9,68.2c-.5,1-1,1.2-2.2,1.2h-.8l.3-1.3h.6c.7,0,.8-.5,1-.8l-1-5.6h1.6l.5,4.1h0l2-4.1h1.7Z" fill="#636569"/><path d="M46.3,61.7h1.5v.7h0a1.9,1.9,0,0,1,1.7-.8,2,2,0,0,1,2.2,2.2c0,1.9-1,3.7-3.1,3.7s-1.4-.2-1.6-.9h0l-.6,2.8H44.7Zm.9,3.4c0,.8.4,1.3,1.1,1.3S50,65,50,64a1.2,1.2,0,0,0-1.1-1.3C47.7,62.7,47.2,64.2,47.2,65.1Z" fill="#636569"/><path d="M53.1,61.7h1.5l-.2,1h0a2.1,2.1,0,0,1,2-1.2h.4l-.3,1.5h-.6c-1.2,0-1.7.9-1.9,1.9l-.5,2.5H51.9Z" fill="#636569"/><path d="M58,64.9v.4a1.1,1.1,0,0,0,1.2,1.1c.6,0,.9-.4,1.2-.8h1.5A2.7,2.7,0,0,1,59,67.5a2.2,2.2,0,0,1-2.5-2.4,3.2,3.2,0,0,1,3.1-3.5c1.6,0,2.6.8,2.6,2.4v.9Zm2.7-1c0-.5-.1-1.2-1-1.2a1.7,1.7,0,0,0-1.6,1.2Z" fill="#636569"/><path d="M68,67.1a2.8,2.8,0,0,1-3.1,2.5c-1.2,0-2.4-.5-2.4-1.9H64c0,.6.5.8,1,.8s1.3-.9,1.6-2h0a1.9,1.9,0,0,1-1.6.8A2.1,2.1,0,0,1,62.9,65c0-1.7,1-3.4,2.8-3.4a1.7,1.7,0,0,1,1.8,1h0l.2-.9h1.5Zm-3.6-2.2a1.1,1.1,0,0,0,1.1,1.2c1.1,0,1.6-1.2,1.6-2.1s-.3-1.3-1.1-1.3S64.4,64,64.4,64.9Z" fill="#636569"/><path d="M70.4,61.7h1.5v.8h0a2.5,2.5,0,0,1,2-.9c1.1,0,1.6.5,1.6,1.5s-.1.8-.1,1l-.7,3.3H73l.7-3.3c0-.2.1-.6.1-.7s-.4-.6-.8-.6a1.6,1.6,0,0,0-1.5,1.6l-.7,3H69.3Z" fill="#636569"/><path d="M76.8,63.4c.2-1.4,1.4-1.8,2.7-1.8s2.3.2,2.3,1.4a3.4,3.4,0,0,1-.1,1l-.5,2.3a1.9,1.9,0,0,0-.1.8.4.4,0,0,0,.1.3H79.6v-.6a2.2,2.2,0,0,1-1.7.7c-1.3,0-1.9-.7-1.9-1.4s.9-1.8,2.2-2,2.2-.1,2.2-.8-.6-.7-1-.7a1.1,1.1,0,0,0-1.2.8Zm3.3,1.3a3.2,3.2,0,0,1-1.4.2c-.5.1-1.1.3-1.1,1s.4.6.8.6,1.3-.7,1.5-1.3Z" fill="#636569"/><path d="M83.5,61.7H85l-.2.8h0a2.5,2.5,0,0,1,2-.9c1.1,0,1.7.5,1.7,1.5s-.2.8-.2,1l-.7,3.3H86l.7-3.3a2,2,0,0,0,.1-.7.7.7,0,0,0-.7-.6c-1,0-1.4.8-1.6,1.6l-.6,3H82.3Z" fill="#636569"/><path d="M93.5,63.7c0-.7-.4-1-1.1-1s-1.6,1.5-1.6,2.4.3,1.3,1.1,1.3a1.4,1.4,0,0,0,1.3-1.1h1.5a2.9,2.9,0,0,1-2.9,2.2c-1.6,0-2.5-.7-2.5-2.4s1.1-3.5,3.2-3.5,2.5.6,2.5,2.1Z" fill="#636569"/><path d="M96.3,61.7h1.6l-1.2,5.7H95.1Zm1.8-.9H96.5l.3-1.3h1.6Z" fill="#636569"/><path d="M99.7,64.9v.4c0,.6.4,1.1,1.3,1.1a1.2,1.2,0,0,0,1.1-.8h1.6a2.7,2.7,0,0,1-3,1.9,2.2,2.2,0,0,1-2.5-2.4,3.2,3.2,0,0,1,3.2-3.5A2.3,2.3,0,0,1,104,64a2.5,2.5,0,0,1-.1.9Zm2.8-1c0-.5-.1-1.2-1.1-1.2a1.6,1.6,0,0,0-1.5,1.2Z" fill="#636569"/><path d="M108.3,63.4c0-.5-.3-.8-.9-.8s-.9.2-.9.6.1.4.7.5l.8.3c.8.3,1.4.7,1.4,1.6s-1.4,1.9-2.7,1.9-2.4-.4-2.4-1.7v-.3h1.5v.2c0,.6.6.8,1.1.8s1-.2,1-.7-.2-.5-.6-.6l-1.2-.4a1.3,1.3,0,0,1-1.2-1.4c0-1.4,1.4-1.8,2.5-1.8s2.4.3,2.3,1.8Z" fill="#636569"/><path d="M110.3,65.7h1.8l-.4,1.7H110Z" fill="#636569"/><path d="M117.9,59.5h1.7l-.6,3.1h3.1l.7-3.1h1.7l-1.6,7.9h-1.8l.7-3.4h-3.1l-.8,3.4h-1.7Z" fill="#636569"/><path d="M126,64.9v.4c0,.6.4,1.1,1.3,1.1a1.2,1.2,0,0,0,1.1-.8H130a2.7,2.7,0,0,1-3,1.9,2.2,2.2,0,0,1-2.5-2.4,3.2,3.2,0,0,1,3.1-3.5c1.6,0,2.7.8,2.7,2.4a2.5,2.5,0,0,1-.1.9Zm2.8-1a1.1,1.1,0,0,0-1.1-1.2,1.5,1.5,0,0,0-1.5,1.2Z" fill="#636569"/><path d="M131.4,63.4c.2-1.4,1.4-1.8,2.7-1.8s2.4.2,2.3,1.4a3.4,3.4,0,0,1-.1,1l-.5,2.3a1.9,1.9,0,0,0-.1.8.4.4,0,0,0,.1.3h-1.6v-.6a2.2,2.2,0,0,1-1.7.7c-1.3,0-1.9-.7-1.9-1.4s.9-1.8,2.2-2,2.2-.1,2.2-.8-.6-.7-1-.7a1.1,1.1,0,0,0-1.2.8Zm3.3,1.3a3,3,0,0,1-1.3.2c-.6.1-1.2.3-1.2,1s.4.6.9.6,1.2-.7,1.4-1.3Z" fill="#636569"/><path d="M138.6,59.5h1.5l-1.6,7.9h-1.6Z" fill="#636569"/><path d="M142.9,61.7h1.2l-.3,1.1h-1.1l-.6,2.8v.2c0,.5.3.5.5.5h.6l-.3,1.2h-1c-.7,0-1.5-.2-1.5-1.2a4.3,4.3,0,0,0,.1-.5l.6-3h-1l.3-1.1h1l.3-1.7h1.6Z" fill="#636569"/><path d="M145.4,59.5H147l-.6,2.9h.1a1.9,1.9,0,0,1,1.8-.8c1.1,0,1.7.5,1.7,1.5a3.6,3.6,0,0,1-.2,1l-.7,3.3h-1.5l.7-3.3c0-.2.1-.6.1-.7s-.4-.6-.8-.6-1.4.8-1.6,1.6l-.6,3h-1.6Z" fill="#636569"/><path d="M153,68.2c-.5,1-1,1.2-2.2,1.2H150l.2-1.3h.7c.7,0,.8-.5,1-.8l-1-5.6h1.6l.5,4.1h0l2-4.1h1.6Z" fill="#636569"/><path d="M163.7,63.7c0-.7-.3-1-1-1s-1.6,1.5-1.6,2.4.3,1.3,1.1,1.3a1.2,1.2,0,0,0,1.2-1.1H165a3,3,0,0,1-2.9,2.2c-1.6,0-2.6-.7-2.6-2.4a3.3,3.3,0,0,1,3.3-3.5c1.3,0,2.5.6,2.5,2.1Z" fill="#636569"/><path d="M167.1,59.5h1.5l-.6,2.9h.1a1.9,1.9,0,0,1,1.8-.8c1.1,0,1.7.5,1.7,1.5a3.6,3.6,0,0,1-.2,1l-.7,3.3h-1.5l.7-3.3c0-.2.1-.6.1-.7s-.4-.6-.8-.6-1.4.8-1.6,1.6l-.6,3h-1.6Z" fill="#636569"/><path d="M173.3,61.7h1.6l-1.2,5.7h-1.6Zm1.8-.9h-1.6l.3-1.3h1.6Z" fill="#636569"/><path d="M176.7,59.5h1.5l-1.7,7.9H175Z" fill="#636569"/><path d="M182,66.7h-.1a1.8,1.8,0,0,1-1.7.8,2,2,0,0,1-2.1-2.2c0-1.9,1-3.7,3.1-3.7a1.6,1.6,0,0,1,1.6.9h0l.6-3H185l-1.7,7.9h-1.5Zm-2.4-1.6a1.2,1.2,0,0,0,1.1,1.3c1.2,0,1.8-1.5,1.8-2.4s-.4-1.3-1.2-1.3S179.6,64.1,179.6,65.1Z" fill="#636569"/><path d="M185.7,61.7h1.5l-.2,1h0a2.1,2.1,0,0,1,2-1.2h.5l-.4,1.5h-.6c-1.2,0-1.6.9-1.9,1.9l-.5,2.5h-1.5Z" fill="#636569"/><path d="M190.6,64.9v.4a1.1,1.1,0,0,0,1.2,1.1,1.2,1.2,0,0,0,1.2-.8h1.6a2.8,2.8,0,0,1-3,1.9,2.2,2.2,0,0,1-2.5-2.4,3.2,3.2,0,0,1,3.1-3.5c1.6,0,2.7.8,2.7,2.4s-.1.7-.1.9Zm2.8-1a1.1,1.1,0,0,0-1.1-1.2,1.7,1.7,0,0,0-1.6,1.2Z" fill="#636569"/><path d="M196.3,61.7h1.5v.8h0a2.5,2.5,0,0,1,2-.9,1.4,1.4,0,0,1,1.6,1.5c0,.2-.1.8-.1,1l-.7,3.3h-1.6l.7-3.3c0-.2.1-.6.1-.7s-.4-.6-.8-.6-1.4.8-1.6,1.6l-.6,3h-1.6Z" fill="#636569"/><path d="M202.2,65.7H204l-.4,1.7h-1.7Z" fill="#636569"/><path d="M209.7,59.5h1.8l-.7,3.1H214l.6-3.1h1.8l-1.7,7.9H213l.7-3.4h-3.2l-.7,3.4h-1.7Z" fill="#636569"/><path d="M217.9,64.9v.4a1.1,1.1,0,0,0,1.2,1.1,1.2,1.2,0,0,0,1.2-.8h1.6a2.8,2.8,0,0,1-3,1.9,2.2,2.2,0,0,1-2.5-2.4,3.2,3.2,0,0,1,3.1-3.5c1.6,0,2.7.8,2.7,2.4s-.1.7-.1.9Zm2.8-1a1.1,1.1,0,0,0-1.1-1.2,1.7,1.7,0,0,0-1.6,1.2Z" fill="#636569"/><path d="M223.2,63.4c.2-1.4,1.4-1.8,2.7-1.8s2.4.2,2.4,1.4-.1.7-.1,1l-.5,2.3a1.9,1.9,0,0,0-.1.8.4.4,0,0,0,.1.3h-1.6v-.6a2.3,2.3,0,0,1-1.8.7c-1.2,0-1.8-.7-1.8-1.4s.8-1.8,2.2-2,2.1-.1,2.1-.8-.5-.7-.9-.7a1.1,1.1,0,0,0-1.2.8Zm3.3,1.3a2.7,2.7,0,0,1-1.3.2c-.6.1-1.1.3-1.1,1s.4.6.8.6,1.3-.7,1.5-1.3Z" fill="#636569"/><path d="M230.4,59.5H232l-1.7,7.9h-1.5Z" fill="#636569"/><path d="M234.8,61.7h1.1l-.2,1.1h-1.1l-.6,2.8a.3.3,0,0,1-.1.2c0,.5.3.5.6.5h.5l-.2,1.2h-1c-.7,0-1.5-.2-1.5-1.2a1.1,1.1,0,0,1,.1-.5l.6-3h-1l.2-1.1h1l.4-1.7h1.6Z" fill="#636569"/><path d="M237.3,59.5h1.6l-.6,2.9h0a2.3,2.3,0,0,1,1.9-.8c1.1,0,1.7.5,1.7,1.5s-.2.8-.2,1l-.7,3.3h-1.6l.7-3.3a2,2,0,0,0,.1-.7.7.7,0,0,0-.7-.6,1.6,1.6,0,0,0-1.6,1.6l-.7,3h-1.5Z" fill="#636569"/><path d="M244.9,68.2a2,2,0,0,1-2.2,1.2h-.9l.3-1.3h.6c.8,0,.9-.5,1.1-.8l-1-5.6h1.6l.5,4.1h0l2-4.1h1.6Z" fill="#636569"/><path d="M252,63.4c.2-1.4,1.4-1.8,2.7-1.8s2.3.2,2.3,1.4a3.4,3.4,0,0,1-.1,1l-.5,2.3a1.9,1.9,0,0,0-.1.8.4.4,0,0,0,.1.3h-1.6v-.6a2.2,2.2,0,0,1-1.7.7c-1.3,0-1.9-.7-1.9-1.4s.8-1.8,2.2-2,2.2-.1,2.2-.8-.6-.7-1-.7a1.1,1.1,0,0,0-1.2.8Zm3.3,1.3a3.2,3.2,0,0,1-1.4.2c-.6.1-1.1.3-1.1,1s.4.6.8.6,1.3-.7,1.5-1.3Z" fill="#636569"/><path d="M258.7,61.7h1.5l-.2.8h0a2.5,2.5,0,0,1,2-.9c1.1,0,1.7.5,1.7,1.5s-.2.8-.2,1l-.7,3.3h-1.6l.7-3.3a2,2,0,0,0,.1-.7.7.7,0,0,0-.7-.6,1.6,1.6,0,0,0-1.6,1.6l-.7,3h-1.5Z" fill="#636569"/><path d="M268.3,66.7h0a1.8,1.8,0,0,1-1.7.8,2,2,0,0,1-2.2-2.2c0-1.9,1-3.7,3.1-3.7s1.4.2,1.6.9h.1l.6-3h1.6l-1.7,7.9h-1.5ZM266,65.1a1.2,1.2,0,0,0,1.1,1.3c1.2,0,1.7-1.5,1.7-2.4s-.3-1.3-1.1-1.3S266,64.1,266,65.1Z" fill="#636569"/><path d="M277.5,61.6c1.6,0,2.6.7,2.6,2.4a3.2,3.2,0,0,1-3.3,3.5c-1.6,0-2.6-.8-2.6-2.4A3.3,3.3,0,0,1,277.5,61.6Zm-.6,4.8c1.2,0,1.7-1.5,1.7-2.4s-.4-1.3-1.2-1.3-1.6,1.4-1.6,2.4A1.2,1.2,0,0,0,276.9,66.4Z" fill="#636569"/><path d="M281.6,61.7h1.5v.7h0a1.9,1.9,0,0,1,1.7-.8,2,2,0,0,1,2.2,2.2c0,1.9-1,3.7-3.1,3.7s-1.4-.2-1.6-.9h-.1l-.6,2.8H280Zm.9,3.4c0,.8.3,1.3,1.1,1.3s1.7-1.4,1.7-2.4a1.2,1.2,0,0,0-1.1-1.3C283,62.7,282.5,64.2,282.5,65.1Z" fill="#636569"/><path d="M290.4,61.7h1.1l-.2,1.1h-1.1l-.6,2.8v.2c0,.5.3.5.5.5h.5l-.2,1.2h-1c-.7,0-1.5-.2-1.5-1.2a1.1,1.1,0,0,1,.1-.5l.6-3h-1l.2-1.1h1l.4-1.7h1.6Z" fill="#636569"/><path d="M292.5,61.7h1.6l-1.2,5.7h-1.6Zm1.8-.9h-1.6l.3-1.3h1.5Z" fill="#636569"/><path d="M295.3,61.7h1.5l-.2.8h.1a2.3,2.3,0,0,1,2-.9,1.2,1.2,0,0,1,1.3.9,2.7,2.7,0,0,1,2-.9c.9,0,1.7.4,1.7,1.4a5.2,5.2,0,0,1-.2,1.1l-.7,3.3h-1.5l.7-3.6c0-.2.1-.3.1-.4s-.3-.6-.7-.6-1.3.9-1.5,1.5l-.6,3.1h-1.6l.7-3.6a.8.8,0,0,0,.1-.4c0-.4-.3-.6-.7-.6s-1.3.9-1.5,1.5l-.6,3.1h-1.6Z" fill="#636569"/><path d="M304.9,63.4c.2-1.4,1.4-1.8,2.7-1.8s2.4.2,2.4,1.4a3.6,3.6,0,0,1-.2,1l-.5,2.3v1.1h-1.5v-.6a2.4,2.4,0,0,1-1.8.7c-1.2,0-1.8-.7-1.8-1.4s.8-1.8,2.2-2,2.1-.1,2.1-.8-.6-.7-1-.7a1.1,1.1,0,0,0-1.1.8Zm3.3,1.3a3,3,0,0,1-1.3.2c-.6.1-1.2.3-1.2,1s.4.6.9.6,1.3-.7,1.5-1.3Z" fill="#636569"/><path d="M312.1,59.5h1.6L312,67.4h-1.6Z" fill="#636569"/><path d="M318,59.5h1.6l-1.7,7.9h-1.6Z" fill="#636569"/><path d="M320.4,61.7H322l-1.2,5.7h-1.6Zm1.7-.9h-1.5l.3-1.3h1.5Z" fill="#636569"/><path d="M325,67.4h-1.8l-.7-5.7h1.6l.4,4.1h0l2-4.1h1.6Z" fill="#636569"/><path d="M329.5,64.9v.4a1.1,1.1,0,0,0,1.2,1.1,1.2,1.2,0,0,0,1.2-.8h1.6a2.7,2.7,0,0,1-3,1.9,2.2,2.2,0,0,1-2.5-2.4,3.2,3.2,0,0,1,3.1-3.5c1.6,0,2.7.8,2.7,2.4s-.1.7-.1.9Zm2.8-1a1.1,1.1,0,0,0-1.1-1.2,1.5,1.5,0,0,0-1.5,1.2Z" fill="#636569"/><path d="M338.1,63.4c0-.5-.3-.8-.9-.8s-1,.2-1,.6.2.4.7.5l.8.3c.9.3,1.5.7,1.5,1.6s-1.4,1.9-2.7,1.9-2.4-.4-2.4-1.7v-.3h1.4v.2c0,.6.6.8,1.2.8s1-.2,1-.7-.3-.5-.6-.6l-1.2-.4a1.3,1.3,0,0,1-1.2-1.4c0-1.4,1.4-1.8,2.5-1.8s2.3.3,2.3,1.8Z" fill="#636569"/><path d="M340.1,65.7h1.8l-.4,1.7h-1.7Z" fill="#636569"/></svg>